<svg width="12" height="14" viewBox="0 0 12 14" fill="none" xmlns="http://www.w3.org/2000/svg">
<path d="M10 3.66667H9.76667C9.91881 3.35518 9.99858 3.01333 10 2.66667C10.002 2.20222 9.86499 1.7478 9.60654 1.36189C9.3481 0.975986 8.98007 0.676261 8.54983 0.501297C8.11959 0.326333 7.64683 0.284139 7.19241 0.380146C6.73799 0.476153 6.3227 0.705966 6 1.04C5.6773 0.705966 5.26201 0.476153 4.80759 0.380146C4.35317 0.284139 3.88041 0.326333 3.45017 0.501297C3.01993 0.676261 2.6519 0.975986 2.39346 1.36189C2.13502 1.7478 1.99798 2.20222 2 2.66667C2.00142 3.01333 2.08119 3.35518 2.23333 3.66667H2C1.46957 3.66667 0.960859 3.87739 0.585787 4.25246C0.210714 4.62753 0 5.13624 0 5.66667V7C0 7.17682 0.0702379 7.34639 0.195262 7.47141C0.320286 7.59643 0.489856 7.66667 0.666667 7.66667H1.33333V11.6667C1.33333 12.1971 1.54405 12.7058 1.91912 13.0809C2.29419 13.456 2.8029 13.6667 3.33333 13.6667H8.66667C9.1971 13.6667 9.70581 13.456 10.0809 13.0809C10.456 12.7058 10.6667 12.1971 10.6667 11.6667V7.66667H11.3333C11.5101 7.66667 11.6797 7.59643 11.8047 7.47141C11.9298 7.34639 12 7.17682 12 7V5.66667C12 5.13624 11.7893 4.62753 11.4142 4.25246C11.0391 3.87739 10.5304 3.66667 10 3.66667ZM5.33333 12.3333H3.33333C3.15652 12.3333 2.98695 12.2631 2.86193 12.1381C2.7369 12.0131 2.66667 11.8435 2.66667 11.6667V7.66667H5.33333V12.3333ZM5.33333 6.33334H1.33333V5.66667C1.33333 5.48986 1.40357 5.32029 1.5286 5.19527C1.65362 5.07024 1.82319 5 2 5H5.33333V6.33334ZM5.33333 3.66667H4.33333C4.13555 3.66667 3.94221 3.60802 3.77776 3.49814C3.61331 3.38826 3.48514 3.23208 3.40945 3.04936C3.33377 2.86663 3.31396 2.66556 3.35255 2.47158C3.39113 2.2776 3.48637 2.09942 3.62623 1.95956C3.76608 1.81971 3.94426 1.72447 4.13824 1.68589C4.33222 1.6473 4.53329 1.6671 4.71602 1.74279C4.89874 1.81848 5.05492 1.94665 5.1648 2.1111C5.27468 2.27555 5.33333 2.46889 5.33333 2.66667V3.66667ZM6.66667 2.66667C6.66667 2.46889 6.72532 2.27555 6.8352 2.1111C6.94508 1.94665 7.10126 1.81848 7.28398 1.74279C7.46671 1.6671 7.66778 1.6473 7.86176 1.68589C8.05574 1.72447 8.23392 1.81971 8.37377 1.95956C8.51363 2.09942 8.60887 2.2776 8.64745 2.47158C8.68604 2.66556 8.66623 2.86663 8.59055 3.04936C8.51486 3.23208 8.38669 3.38826 8.22224 3.49814C8.05779 3.60802 7.86445 3.66667 7.66667 3.66667H6.66667V2.66667ZM9.33333 11.6667C9.33333 11.8435 9.2631 12.0131 9.13807 12.1381C9.01305 12.2631 8.84348 12.3333 8.66667 12.3333H6.66667V7.66667H9.33333V11.6667ZM10.6667 6.33334H6.66667V5H10C10.1768 5 10.3464 5.07024 10.4714 5.19527C10.5964 5.32029 10.6667 5.48986 10.6667 5.66667V6.33334Z" fill="#27568A"/>
</svg>
