<svg width="14" height="14" viewBox="0 0 14 14" fill="none" xmlns="http://www.w3.org/2000/svg">
<path d="M13.6667 5.44676C13.6246 5.32482 13.548 5.21772 13.4462 5.13843C13.3445 5.05915 13.2219 5.01109 13.0933 5.0001L9.3 4.44676L7.60001 1.0001C7.54541 0.887383 7.46018 0.792325 7.35406 0.725812C7.24795 0.6593 7.12524 0.624023 7.00001 0.624023C6.87477 0.624023 6.75206 0.6593 6.64595 0.725812C6.53983 0.792325 6.4546 0.887383 6.40001 1.0001L4.70001 4.4401L0.906672 5.0001C0.783287 5.01763 0.667288 5.06941 0.571839 5.14954C0.47639 5.22967 0.405312 5.33495 0.366672 5.45343C0.331302 5.56921 0.328128 5.69244 0.35749 5.80989C0.386853 5.92734 0.447644 6.03458 0.533339 6.1201L3.28667 8.78676L2.62001 12.5734C2.59621 12.6984 2.60867 12.8276 2.65592 12.9457C2.70317 13.0639 2.78324 13.166 2.88667 13.2401C2.98748 13.3122 3.10639 13.3547 3.23004 13.363C3.35369 13.3712 3.47719 13.3448 3.58667 13.2868L7.00001 11.5068L10.4 13.2934C10.4936 13.3462 10.5992 13.3738 10.7067 13.3734C10.8479 13.3739 10.9856 13.3296 11.1 13.2468C11.2034 13.1727 11.2835 13.0705 11.3308 12.9524C11.378 12.8343 11.3905 12.7051 11.3667 12.5801L10.7 8.79343L13.4533 6.12676C13.5496 6.04522 13.6207 5.93803 13.6585 5.81766C13.6963 5.69729 13.6991 5.56868 13.6667 5.44676ZM9.56667 8.11343C9.48849 8.18905 9.42999 8.28266 9.3963 8.38608C9.3626 8.4895 9.35472 8.5996 9.37334 8.70676L9.85334 11.5001L7.34667 10.1668C7.25022 10.1154 7.14262 10.0885 7.03334 10.0885C6.92406 10.0885 6.81646 10.1154 6.72001 10.1668L4.21334 11.5001L4.69334 8.70676C4.71196 8.5996 4.70408 8.4895 4.67038 8.38608C4.63668 8.28266 4.57819 8.18905 4.50001 8.11343L2.50001 6.11343L5.30667 5.70676C5.41467 5.69174 5.51734 5.65046 5.60567 5.58653C5.69401 5.52261 5.76531 5.43799 5.81334 5.3401L7.00001 2.8001L8.25334 5.34676C8.30137 5.44466 8.37267 5.52927 8.46101 5.5932C8.54934 5.65712 8.65201 5.69841 8.76001 5.71343L11.5667 6.1201L9.56667 8.11343Z" fill="#4C61D0"/>
</svg>
